REM DISCID 12345678
REM COMMENT "ExactAudioCopy v1.3"
PERFORMER "Artist Apple"
TITLE "Album ABC"
REM COMPOSER ""
FILE "CDImage.wav" WAVE
  TRACK 01 AUDIO
    TITLE "Track A"
    PERFORMER "Artist Apple"
    REM COMPOSER ""
    FLAGS DCP
    INDEX 01 00:00:00
  TRACK 02 AUDIO
    TITLE "音轨 B"
    PERFORMER "艺术家 Apple"
    REM COMPOSER ""
    FLAGS DCP
    INDEX 00 05:00:00
    INDEX 01 05:30:00
  TRACK 03 AUDIO
    TITLE "音轨 C"
    PERFORMER "艺术家 苹果"
    REM COMPOSER ""
    FLAGS DCP
    INDEX 00 08:00:00
    INDEX 01 08:30:00
